<?xml version="1.0" standalone="no"?>
<!DOCTYPE svg PUBLIC "-//W3C//DTD SVG 20010904//EN"
 "http://www.w3.org/TR/2001/REC-SVG-20010904/DTD/svg10.dtd">
<svg version="1.0" xmlns="http://www.w3.org/2000/svg"
 width="644.000000pt" height="388.000000pt" viewBox="0 0 644.000000 388.000000"
 preserveAspectRatio="xMidYMid meet">

<g transform="translate(0.000000,388.000000) scale(0.100000,-0.100000)"
fill="#000000" stroke="none">
<path d="M1958 2683 c7 -3 16 -2 19 1 4 3 -2 6 -13 5 -11 0 -14 -3 -6 -6z"/>
<path d="M2374 2486 c27 -25 51 -44 54 -42 5 5 -76 79 -92 85 -6 2 11 -18 38
-43z"/>
<path d="M324 1835 c0 -434 2 -500 6 -265 3 173 3 434 0 580 -4 169 -6 56 -6
-315z"/>
<path d="M1586 2274 c-20 -52 1 -144 41 -175 17 -13 17 -13 2 6 -26 31 -42 93
-36 141 5 46 3 54 -7 28z"/>
<path d="M3745 2226 c-7 -25 -4 -33 19 -53 15 -13 32 -23 39 -23 7 0 3 6 -8
12 -28 16 -27 14 -35 55 l-7 38 -8 -29z"/>
<path d="M4571 2185 c0 -27 3 -56 8 -63 5 -8 6 8 4 40 -6 73 -11 83 -12 23z"/>
<path d="M2025 2149 c-4 -6 -5 -12 -2 -15 2 -3 7 2 10 11 7 17 1 20 -8 4z"/>
<path d="M3225 1997 c0 -23 -3 -60 -7 -82 -6 -30 -5 -34 2 -17 15 35 24 128
13 135 -4 3 -8 -13 -8 -36z"/>
<path d="M5263 1985 c0 -22 2 -30 4 -17 2 12 2 30 0 40 -3 9 -5 -1 -4 -23z"/>
<path d="M5246 1909 c-8 -42 0 -50 9 -9 4 17 5 34 2 36 -2 3 -7 -10 -11 -27z"/>
<path d="M4351 1894 c0 -11 3 -14 6 -6 3 7 2 16 -1 19 -3 4 -6 -2 -5 -13z"/>
<path d="M2191 1846 c-6 -25 -11 -61 -11 -81 0 -36 26 -112 35 -103 3 3 -2 21
-10 41 -18 43 -19 87 -4 140 6 22 8 41 6 43 -2 3 -10 -15 -16 -40z"/>
<path d="M2562 1850 c0 -14 2 -19 5 -12 2 6 2 18 0 25 -3 6 -5 1 -5 -13z"/>
<path d="M3690 1820 c-7 -28 -10 -53 -8 -55 3 -3 10 18 16 47 7 28 11 53 8 55
-2 2 -9 -19 -16 -47z"/>
<path d="M4341 1824 c-2 -101 37 -175 124 -234 11 -7 1 6 -23 29 -52 50 -81
110 -91 194 l-8 62 -2 -51z"/>
<path d="M3191 1816 c-11 -47 -15 -83 -6 -74 7 6 26 110 21 115 -2 2 -9 -16
-15 -41z"/>
<path d="M5216 1785 c-3 -9 -6 -24 -5 -33 0 -9 5 -4 10 12 9 32 6 48 -5 21z"/>
<path d="M5761 1774 c0 -11 3 -14 6 -6 3 7 2 16 -1 19 -3 4 -6 -2 -5 -13z"/>
<path d="M1372 1730 c-1 -37 5 -67 18 -90 11 -19 19 -31 20 -27 0 5 -5 18 -12
30 -6 12 -15 49 -18 82 l-7 60 -1 -55z"/>
<path d="M5751 1724 c-1 -12 7 -30 17 -41 9 -10 14 -14 11 -8 -4 5 -11 24 -17
40 -8 24 -11 26 -11 9z"/>
<path d="M3172 1710 c0 -14 2 -19 5 -12 2 6 2 18 0 25 -3 6 -5 1 -5 -13z"/>
<path d="M5192 1678 c-6 -23 -9 -44 -7 -46 2 -2 9 15 15 38 6 23 9 44 7 46 -2
3 -9 -14 -15 -38z"/>
<path d="M3680 1698 c0 -8 7 -21 15 -28 19 -16 19 -1 0 24 -12 16 -15 17 -15
4z"/>
<path d="M2860 1691 c0 -6 4 -13 10 -16 6 -3 7 1 4 9 -7 18 -14 21 -14 7z"/>
<path d="M3161 1664 c0 -11 3 -14 6 -6 3 7 2 16 -1 19 -3 4 -6 -2 -5 -13z"/>
<path d="M408 1045 c10 -20 82 -93 82 -84 0 3 -21 27 -46 55 -26 27 -42 40
-36 29z"/>
</g>
</svg>
